<svg width="45" height="45" viewBox="0 0 45 45" fill="none" xmlns="http://www.w3.org/2000/svg">
<g filter="url(#filter0_d_2916_9210)">
<circle cx="22.5" cy="18.5" r="18.5" fill="#F5F5F5"/>
</g>
<path d="M30.8801 13.17C30.158 12.4565 29.1851 12.0545 28.1701 12.05H26.7501C26.6462 12.0504 26.5432 12.0302 26.4471 11.9908C26.3511 11.9513 26.2637 11.8933 26.1901 11.82L25.0401 10.67C24.6097 10.2416 24.0273 10.0007 23.4201 10H20.5801C19.9728 10.0007 19.3904 10.2416 18.9601 10.67L17.8101 11.82C17.7364 11.8933 17.6491 11.9513 17.553 11.9908C17.4569 12.0302 17.3539 12.0504 17.2501 12.05H15.8301C15.3259 12.0487 14.8264 12.1472 14.3605 12.3398C13.8946 12.5324 13.4714 12.8154 13.1153 13.1724C12.7593 13.5293 12.4774 13.9533 12.286 14.4197C12.0946 14.8861 11.9974 15.3858 12.0001 15.89V23.08C11.9987 23.5833 12.0969 24.082 12.2889 24.5472C12.4809 25.0125 12.763 25.4352 13.1189 25.7912C13.4748 26.1471 13.8975 26.4291 14.3628 26.6211C14.8281 26.8132 15.3267 26.9113 15.8301 26.91H28.1701C29.1855 26.9077 30.1592 26.5053 30.8801 25.79C31.236 25.4343 31.5182 25.0118 31.7104 24.5467C31.9026 24.0817 32.0011 23.5832 32.0001 23.08V15.89C32.0014 15.3852 31.9032 14.8852 31.711 14.4184C31.5188 13.9517 31.2364 13.5275 30.8801 13.17ZM21.9601 22.65C21.2322 22.65 20.5207 22.4342 19.9156 22.0298C19.3104 21.6254 18.8387 21.0507 18.5602 20.3783C18.2816 19.7058 18.2088 18.9659 18.3508 18.2521C18.4928 17.5382 18.8432 16.8825 19.3579 16.3678C19.8726 15.8532 20.5283 15.5027 21.2421 15.3607C21.956 15.2187 22.6959 15.2916 23.3683 15.5701C24.0408 15.8487 24.6155 16.3203 25.0199 16.9255C25.4242 17.5307 25.6401 18.2422 25.6401 18.97C25.6374 19.9452 25.2489 20.8797 24.5593 21.5692C23.8697 22.2588 22.9352 22.6474 21.9601 22.65Z" fill="black"/>
<defs>
<filter id="filter0_d_2916_9210" x="0" y="0" width="45" height="45" filterUnits="userSpaceOnUse" color-interpolation-filters="sRGB">
<feFlood flood-opacity="0" result="BackgroundImageFix"/>
<feColorMatrix in="SourceAlpha" type="matrix" values="0 0 0 0 0 0 0 0 0 0 0 0 0 0 0 0 0 0 127 0" result="hardAlpha"/>
<feOffset dy="4"/>
<feGaussianBlur stdDeviation="2"/>
<feComposite in2="hardAlpha" operator="out"/>
<feColorMatrix type="matrix" values="0 0 0 0 0 0 0 0 0 0 0 0 0 0 0 0 0 0 0.25 0"/>
<feBlend mode="normal" in2="BackgroundImageFix" result="effect1_dropShadow_2916_9210"/>
<feBlend mode="normal" in="SourceGraphic" in2="effect1_dropShadow_2916_9210" result="shape"/>
</filter>
</defs>
</svg>
