<svg width="22" height="22" viewBox="0 0 22 22" fill="none" xmlns="http://www.w3.org/2000/svg">
<path d="M9.8909 2.17203C10.2718 1.14253 11.728 1.14253 12.1089 2.17202L14.005 7.29616C14.1248 7.61983 14.38 7.87503 14.7036 7.9948L19.8278 9.8909C20.8573 10.2718 20.8573 11.728 19.8278 12.1089L14.7036 14.005C14.38 14.1248 14.1248 14.38 14.005 14.7036L12.1089 19.8278C11.728 20.8573 10.2718 20.8573 9.8909 19.8278L7.9948 14.7036C7.87503 14.38 7.61984 14.1248 7.29616 14.005L2.17203 12.1089C1.14253 11.728 1.14253 10.2718 2.17202 9.8909L7.29616 7.9948C7.61983 7.87503 7.87503 7.61984 7.9948 7.29616L9.8909 2.17203Z" stroke="#ACACAC" stroke-width="1.3" stroke-linejoin="round"/>
</svg>
